<svg width="16" height="16" viewBox="0 0 16 16" fill="none" xmlns="http://www.w3.org/2000/svg">
<path d="M6.92145 10.7115L11.6073 6.04646L10.8333 5.27251L6.92145 9.16355L5.15062 7.41355L4.37666 8.18751L6.92145 10.7115ZM8.00145 15.5833C6.962 15.5833 5.98138 15.386 5.05957 14.9913C4.13777 14.5965 3.33096 14.0534 2.63916 13.3619C1.94735 12.6704 1.40395 11.8639 1.00895 10.9425C0.614087 10.0211 0.416656 9.04077 0.416656 8.00146C0.416656 6.94813 0.614018 5.96403 1.00874 5.04917C1.40346 4.13431 1.94659 3.33098 2.63811 2.63917C3.32964 1.94737 4.1361 1.40396 5.05749 1.00896C5.97888 0.614102 6.95923 0.416672 7.99853 0.416672C9.05186 0.416672 10.036 0.614033 10.9508 1.00875C11.8657 1.40348 12.669 1.9466 13.3608 2.63813C14.0526 3.32966 14.596 4.13264 14.991 5.04709C15.3859 5.96153 15.5833 6.94535 15.5833 7.99855C15.5833 9.03799 15.386 10.0186 14.9912 10.9404C14.5965 11.8622 14.0534 12.669 13.3619 13.3608C12.6703 14.0526 11.8674 14.596 10.9529 14.991C10.0385 15.3859 9.05464 15.5833 8.00145 15.5833ZM7.99999 14.5C9.80555 14.5 11.3403 13.8681 12.6042 12.6042C13.868 11.3403 14.5 9.80556 14.5 8.00001C14.5 6.19445 13.868 4.65973 12.6042 3.39584C11.3403 2.13195 9.80555 1.50001 7.99999 1.50001C6.19443 1.50001 4.65971 2.13195 3.39582 3.39584C2.13193 4.65973 1.49999 6.19445 1.49999 8.00001C1.49999 9.80556 2.13193 11.3403 3.39582 12.6042C4.65971 13.8681 6.19443 14.5 7.99999 14.5Z" fill="#009105"/>
</svg>
