<svg width="16" height="16" viewBox="0 0 16 16" fill="none" xmlns="http://www.w3.org/2000/svg">
<path d="M7.99562 11.7756C8.16145 11.7756 8.30193 11.7195 8.41707 11.6073C8.53221 11.4951 8.58978 11.356 8.58978 11.1902C8.58978 11.0244 8.53367 10.8839 8.42145 10.7688C8.30923 10.6538 8.1702 10.5963 8.00436 10.5963C7.83853 10.5963 7.69805 10.6523 7.58291 10.7644C7.46777 10.8766 7.4102 11.0156 7.4102 11.1815C7.4102 11.3473 7.46631 11.4878 7.57853 11.6029C7.69075 11.7181 7.82978 11.7756 7.99562 11.7756ZM7.45832 9.06417H8.54166V4.06417H7.45832V9.06417ZM8.00707 15.5833C6.96388 15.5833 5.98138 15.386 5.05957 14.9913C4.13777 14.5965 3.33096 14.0534 2.63916 13.3619C1.94735 12.6704 1.40395 11.8642 1.00895 10.9433C0.614087 10.0226 0.416656 9.03882 0.416656 7.99188C0.416656 6.94494 0.614018 5.96403 1.00874 5.04917C1.40346 4.13431 1.94659 3.33098 2.63811 2.63917C3.32964 1.94737 4.13582 1.40396 5.05666 1.00896C5.97735 0.614102 6.96117 0.416672 8.00812 0.416672C9.05506 0.416672 10.036 0.614033 10.9508 1.00875C11.8657 1.40348 12.669 1.9466 13.3608 2.63813C14.0526 3.32966 14.596 4.13417 14.991 5.05167C15.3859 5.96931 15.5833 6.94973 15.5833 7.99292C15.5833 9.03612 15.386 10.0186 14.9912 10.9404C14.5965 11.8622 14.0534 12.669 13.3619 13.3608C12.6703 14.0526 11.8658 14.596 10.9483 14.991C10.0307 15.3859 9.05027 15.5833 8.00707 15.5833ZM7.99999 14.5C9.80555 14.5 11.3403 13.8681 12.6042 12.6042C13.868 11.3403 14.5 9.80556 14.5 8.00001C14.5 6.19445 13.868 4.65973 12.6042 3.39584C11.3403 2.13195 9.80555 1.50001 7.99999 1.50001C6.19443 1.50001 4.65971 2.13195 3.39582 3.39584C2.13193 4.65973 1.49999 6.19445 1.49999 8.00001C1.49999 9.80556 2.13193 11.3403 3.39582 12.6042C4.65971 13.8681 6.19443 14.5 7.99999 14.5Z" fill="#BB0003"/>
</svg>
