<svg width="46" height="23" viewBox="0 0 46 23" fill="none" xmlns="http://www.w3.org/2000/svg">
<path d="M0.917508 21.026C0.539508 21.026 0.242508 20.702 0.242508 20.351V18.704C0.242508 18.326 0.539508 18.002 0.917508 18.002H9.15251V13.061C9.15251 12.683 9.42251 12.386 9.85451 12.386H11.9065C12.3115 12.386 12.6085 12.683 12.6085 13.061V18.002H20.8435C21.2215 18.002 21.5185 18.326 21.5185 18.704V20.351C21.5185 20.702 21.2215 21.026 20.8435 21.026H0.917508ZM1.80851 11.522L9.07151 1.748C9.34151 1.397 9.53051 1.154 9.93551 1.154H11.8255C12.2305 1.154 12.4195 1.397 12.6895 1.748L19.9525 11.441C20.2225 11.792 20.2495 12.224 19.8985 12.494L18.4945 13.601C18.1165 13.898 17.6845 13.844 17.3875 13.439L10.8805 4.637L4.40051 13.493C4.10351 13.925 3.61751 13.844 3.29351 13.601L1.94351 12.602C1.61951 12.359 1.51151 11.9 1.80851 11.522ZM39.591 12.494C39.186 12.494 38.889 12.197 38.889 11.792V1.478C38.889 1.1 39.186 0.748998 39.591 0.748998H41.616C42.021 0.748998 42.345 1.1 42.345 1.478V5.123H44.316C44.721 5.123 45.045 5.474 45.045 5.852V7.445C45.045 7.85 44.721 8.147 44.316 8.147H42.345V11.792C42.345 12.197 42.021 12.494 41.616 12.494H39.591ZM24.282 9.119V2.018C24.282 1.586 24.579 1.289 25.011 1.289H35.433C35.838 1.289 36.162 1.64 36.162 2.045V3.503C36.162 3.908 35.838 4.205 35.433 4.205H27.738V8.714H36.108C36.459 8.714 36.81 9.011 36.81 9.416V10.928C36.81 11.279 36.459 11.63 36.108 11.63H26.658C26.523 11.63 26.388 11.549 26.253 11.414L24.39 9.605C24.336 9.47 24.282 9.335 24.282 9.119ZM25.956 19.595V14.6C25.956 14.168 26.253 13.871 26.685 13.871H41.643C42.048 13.871 42.345 14.222 42.345 14.627V21.404C42.345 21.782 41.967 22.106 41.589 22.106H28.332C28.197 22.106 28.062 22.025 27.927 21.89L26.064 20.081C25.956 19.973 25.956 19.811 25.956 19.595ZM29.412 19.298H38.889V16.679H29.412V19.298Z" fill="#362413"/>
</svg>
