<svg width="14" height="19" viewBox="0 0 14 19" fill="none" xmlns="http://www.w3.org/2000/svg">
<path d="M7.25 11C6.55133 11 5.96 10.758 5.476 10.274C4.992 9.79 4.75 9.19867 4.75 8.5V2.5C4.75 1.80133 4.992 1.21 5.476 0.725999C5.96 0.241999 6.55133 0 7.25 0C7.94867 0 8.54 0.241999 9.024 0.725999C9.508 1.21 9.75 1.80133 9.75 2.5V8.5C9.75 9.19867 9.508 9.79 9.024 10.274C8.54 10.758 7.94867 11 7.25 11ZM6.5 18.25V14.9538C4.85 14.7653 3.47917 14.0576 2.3875 12.8307C1.29583 11.6037 0.75 10.1602 0.75 8.5H2.25C2.25 9.88333 2.7375 11.0625 3.7125 12.0375C4.6875 13.0125 5.86667 13.5 7.25 13.5C8.63333 13.5 9.8125 13.0125 10.7875 12.0375C11.7625 11.0625 12.25 9.88333 12.25 8.5H13.75C13.75 10.1602 13.2042 11.6037 12.1125 12.8307C11.0208 14.0576 9.65 14.7653 8 14.9538V18.25H6.5ZM7.25 9.5C7.53333 9.5 7.77083 9.40417 7.9625 9.2125C8.15417 9.02083 8.25 8.78333 8.25 8.5V2.5C8.25 2.21667 8.15417 1.97917 7.9625 1.7875C7.77083 1.59583 7.53333 1.5 7.25 1.5C6.96667 1.5 6.72917 1.59583 6.5375 1.7875C6.34583 1.97917 6.25 2.21667 6.25 2.5V8.5C6.25 8.78333 6.34583 9.02083 6.5375 9.2125C6.72917 9.40417 6.96667 9.5 7.25 9.5Z" fill="#1C1B1F"/>
</svg>
