<svg width="25" height="25" viewBox="0 0 25 25" fill="none" xmlns="http://www.w3.org/2000/svg">
<circle cx="12.5" cy="12.5" r="12.5" fill="#B4FAA4" fill-opacity="0.8"/>
<path d="M12.25 15C11.5513 15 10.96 14.758 10.476 14.274C9.992 13.79 9.75 13.1987 9.75 12.5V6.5C9.75 5.80133 9.992 5.21 10.476 4.726C10.96 4.242 11.5513 4 12.25 4C12.9487 4 13.54 4.242 14.024 4.726C14.508 5.21 14.75 5.80133 14.75 6.5V12.5C14.75 13.1987 14.508 13.79 14.024 14.274C13.54 14.758 12.9487 15 12.25 15ZM11.5 22.25V18.9538C9.85 18.7653 8.47917 18.0576 7.3875 16.8307C6.29583 15.6037 5.75 14.1602 5.75 12.5H7.25C7.25 13.8833 7.7375 15.0625 8.7125 16.0375C9.6875 17.0125 10.8667 17.5 12.25 17.5C13.6333 17.5 14.8125 17.0125 15.7875 16.0375C16.7625 15.0625 17.25 13.8833 17.25 12.5H18.75C18.75 14.1602 18.2042 15.6037 17.1125 16.8307C16.0208 18.0576 14.65 18.7653 13 18.9538V22.25H11.5ZM12.25 13.5C12.5333 13.5 12.7708 13.4042 12.9625 13.2125C13.1542 13.0208 13.25 12.7833 13.25 12.5V6.5C13.25 6.21667 13.1542 5.97917 12.9625 5.7875C12.7708 5.59583 12.5333 5.5 12.25 5.5C11.9667 5.5 11.7292 5.59583 11.5375 5.7875C11.3458 5.97917 11.25 6.21667 11.25 6.5V12.5C11.25 12.7833 11.3458 13.0208 11.5375 13.2125C11.7292 13.4042 11.9667 13.5 12.25 13.5Z" fill="#1C1B1F"/>
</svg>
