<svg width="24" height="24" viewBox="0 0 24 24" fill="none" xmlns="http://www.w3.org/2000/svg">
<mask id="mask0_25_280" style="mask-type:alpha" maskUnits="userSpaceOnUse" x="0" y="0" width="24" height="24">
<rect width="24" height="24" fill="#D9D9D9"/>
</mask>
<g mask="url(#mask0_25_280)">
<path d="M10 13.5C9.30133 13.5 8.71 13.258 8.226 12.774C7.742 12.29 7.5 11.6987 7.5 11V5C7.5 4.30133 7.742 3.71 8.226 3.226C8.71 2.742 9.30133 2.5 10 2.5C10.6987 2.5 11.29 2.742 11.774 3.226C12.258 3.71 12.5 4.30133 12.5 5V11C12.5 11.6987 12.258 12.29 11.774 12.774C11.29 13.258 10.6987 13.5 10 13.5ZM10 12C10.2833 12 10.5208 11.9042 10.7125 11.7125C10.9042 11.5208 11 11.2833 11 11V5C11 4.71667 10.9042 4.47917 10.7125 4.2875C10.5208 4.09583 10.2833 4 10 4C9.71667 4 9.47917 4.09583 9.2875 4.2875C9.09583 4.47917 9 4.71667 9 5V11C9 11.2833 9.09583 11.5208 9.2875 11.7125C9.47917 11.9042 9.71667 12 10 12ZM10.75 20.75H9.25V17.4538C7.6 17.2653 6.22917 16.5576 5.1375 15.3307C4.04583 14.1037 3.5 12.6602 3.5 11H5C5 12.3833 5.4875 13.5625 6.4625 14.5375C7.4375 15.5125 8.61667 16 10 16C10.1385 16 10.2661 15.9948 10.3828 15.9845C10.4994 15.9743 10.6218 15.959 10.75 15.9385V20.75ZM16.6152 19.7885C16.7486 19.7885 16.8621 19.7417 16.9557 19.648C17.0492 19.5545 17.096 19.4411 17.096 19.3078C17.096 19.1744 17.0492 19.0609 16.9557 18.9673C16.8621 18.8738 16.7486 18.827 16.6152 18.827C16.4819 18.827 16.3685 18.8738 16.275 18.9673C16.1813 19.0609 16.1345 19.1744 16.1345 19.3078C16.1345 19.4411 16.1813 19.5545 16.275 19.648C16.3685 19.7417 16.4819 19.7885 16.6152 19.7885ZM16.173 17.827H17.0577V14.2115H16.173V17.827ZM16.6152 21.5C15.3666 21.5 14.3044 21.0622 13.4288 20.1865C12.5533 19.3108 12.1155 18.2487 12.1155 17C12.1155 15.7513 12.5533 14.6892 13.4288 13.8135C14.3044 12.9378 15.3666 12.5 16.6152 12.5C17.8641 12.5 18.9263 12.9378 19.8018 13.8135C20.6774 14.6892 21.1152 15.7513 21.1152 17C21.1152 18.2487 20.6774 19.3108 19.8018 20.1865C18.9263 21.0622 17.8641 21.5 16.6152 21.5Z" fill="#1C1B1F"/>
</g>
</svg>
