<svg width="25" height="25" viewBox="0 0 25 25" fill="none" xmlns="http://www.w3.org/2000/svg">
<circle cx="12.5" cy="12.5" r="12.5" fill="#FFC6C2" fill-opacity="0.8"/>
<mask id="mask0_25_278" style="mask-type:alpha" maskUnits="userSpaceOnUse" x="1" y="0" width="24" height="24">
<rect x="1" width="24" height="24" fill="#D9D9D9"/>
</mask>
<g mask="url(#mask0_25_278)">
<path d="M11 13.5C10.3013 13.5 9.71 13.258 9.226 12.774C8.742 12.29 8.5 11.6987 8.5 11V5C8.5 4.30133 8.742 3.71 9.226 3.226C9.71 2.742 10.3013 2.5 11 2.5C11.6987 2.5 12.29 2.742 12.774 3.226C13.258 3.71 13.5 4.30133 13.5 5V11C13.5 11.6987 13.258 12.29 12.774 12.774C12.29 13.258 11.6987 13.5 11 13.5ZM11 12C11.2833 12 11.5208 11.9042 11.7125 11.7125C11.9042 11.5208 12 11.2833 12 11V5C12 4.71667 11.9042 4.47917 11.7125 4.2875C11.5208 4.09583 11.2833 4 11 4C10.7167 4 10.4792 4.09583 10.2875 4.2875C10.0958 4.47917 10 4.71667 10 5V11C10 11.2833 10.0958 11.5208 10.2875 11.7125C10.4792 11.9042 10.7167 12 11 12ZM11.75 20.75H10.25V17.4538C8.6 17.2653 7.22917 16.5576 6.1375 15.3307C5.04583 14.1037 4.5 12.6602 4.5 11H6C6 12.3833 6.4875 13.5625 7.4625 14.5375C8.4375 15.5125 9.61667 16 11 16C11.1385 16 11.2661 15.9948 11.3828 15.9845C11.4994 15.9743 11.6218 15.959 11.75 15.9385V20.75ZM17.6152 19.7885C17.7486 19.7885 17.8621 19.7417 17.9557 19.648C18.0492 19.5545 18.096 19.4411 18.096 19.3078C18.096 19.1744 18.0492 19.0609 17.9557 18.9673C17.8621 18.8738 17.7486 18.827 17.6152 18.827C17.4819 18.827 17.3685 18.8738 17.275 18.9673C17.1813 19.0609 17.1345 19.1744 17.1345 19.3078C17.1345 19.4411 17.1813 19.5545 17.275 19.648C17.3685 19.7417 17.4819 19.7885 17.6152 19.7885ZM17.173 17.827H18.0577V14.2115H17.173V17.827ZM17.6152 21.5C16.3666 21.5 15.3044 21.0622 14.4288 20.1865C13.5533 19.3108 13.1155 18.2487 13.1155 17C13.1155 15.7513 13.5533 14.6892 14.4288 13.8135C15.3044 12.9378 16.3666 12.5 17.6152 12.5C18.8641 12.5 19.9263 12.9378 20.8018 13.8135C21.6774 14.6892 22.1152 15.7513 22.1152 17C22.1152 18.2487 21.6774 19.3108 20.8018 20.1865C19.9263 21.0622 18.8641 21.5 17.6152 21.5Z" fill="#1C1B1F"/>
</g>
</svg>
