<svg width="19" height="20" viewBox="0 0 19 20" fill="none" xmlns="http://www.w3.org/2000/svg">
<path d="M7 11.5C6.30133 11.5 5.71 11.258 5.226 10.774C4.742 10.29 4.5 9.69867 4.5 9V3C4.5 2.30133 4.742 1.71 5.226 1.226C5.71 0.741999 6.30133 0.5 7 0.5C7.69867 0.5 8.29 0.741999 8.774 1.226C9.258 1.71 9.5 2.30133 9.5 3V9C9.5 9.69867 9.258 10.29 8.774 10.774C8.29 11.258 7.69867 11.5 7 11.5ZM7 10C7.28333 10 7.52083 9.90417 7.7125 9.7125C7.90417 9.52083 8 9.28333 8 9V3C8 2.71667 7.90417 2.47917 7.7125 2.2875C7.52083 2.09583 7.28333 2 7 2C6.71667 2 6.47917 2.09583 6.2875 2.2875C6.09583 2.47917 6 2.71667 6 3V9C6 9.28333 6.09583 9.52083 6.2875 9.7125C6.47917 9.90417 6.71667 10 7 10ZM7.75 18.75H6.25V15.4538C4.6 15.2653 3.22917 14.5576 2.1375 13.3307C1.04583 12.1037 0.5 10.6602 0.5 9H2C2 10.3833 2.4875 11.5625 3.4625 12.5375C4.4375 13.5125 5.61667 14 7 14C7.1385 14 7.26608 13.9948 7.38275 13.9845C7.49942 13.9743 7.62183 13.959 7.75 13.9385V18.75ZM13.6152 17.7885C13.7486 17.7885 13.8621 17.7417 13.9557 17.648C14.0492 17.5545 14.096 17.4411 14.096 17.3078C14.096 17.1744 14.0492 17.0609 13.9557 16.9673C13.8621 16.8738 13.7486 16.827 13.6152 16.827C13.4819 16.827 13.3685 16.8738 13.275 16.9673C13.1813 17.0609 13.1345 17.1744 13.1345 17.3078C13.1345 17.4411 13.1813 17.5545 13.275 17.648C13.3685 17.7417 13.4819 17.7885 13.6152 17.7885ZM13.173 15.827H14.0577V12.2115H13.173V15.827ZM13.6152 19.5C12.3666 19.5 11.3044 19.0622 10.4288 18.1865C9.55325 17.3108 9.1155 16.2487 9.1155 15C9.1155 13.7513 9.55325 12.6892 10.4288 11.8135C11.3044 10.9378 12.3666 10.5 13.6152 10.5C14.8641 10.5 15.9263 10.9378 16.8018 11.8135C17.6774 12.6892 18.1152 13.7513 18.1152 15C18.1152 16.2487 17.6774 17.3108 16.8018 18.1865C15.9263 19.0622 14.8641 19.5 13.6152 19.5Z" fill="#1C1B1F"/>
</svg>
